<?xml version="1.0" encoding="utf-8"?>
<!-- Generator: Adobe Illustrator 24.0.0, SVG Export Plug-In . SVG Version: 6.00 Build 0)  -->
<svg version="1.1" id="Layer_1" xmlns="http://www.w3.org/2000/svg" xmlns:xlink="http://www.w3.org/1999/xlink" x="0px" y="0px"
	 viewBox="0 0 968.63 830" style="enable-background:new 0 0 968.63 830;" xml:space="preserve">
<style type="text/css">
	.st0{fill:#DE4C3F;}
	.st1{fill:#542D32;}
	.st2{fill:#262626;}
	.st3{fill:#FFFFFF;}
	.st4{font-family:'Sen-ExtraBold';}
	.st5{font-size:42px;}
	.st6{font-family:'Montserrat-Medium';}
	.st7{font-size:27.2773px;}
	.st8{fill:none;}
</style>
<polygon class="st0" points="746.82,466 175.58,466 342.05,109 915.82,109 "/>
<polygon class="st1" points="557.82,466 363.58,466 530.05,109 726.82,109 "/>
<path class="st2" d="M960.78,5L745.81,466H175.85L390.82,5H960.78 M968.63,0h-581L168,471h581L968.63,0L968.63,0z"/>
<g>
	<polygon class="st2" points="915.24,109 337.24,109 389.39,0 967.39,0 	"/>
</g>
<polygon class="st2" points="359.48,469.94 364.82,470 533.3,109 527.79,109 "/>
<polygon class="st3" points="578.62,0 527.79,109 533.3,109 584.13,0 "/>
<polygon class="st2" points="552.81,469.94 558.82,470 726.64,109 721.12,109 "/>
<polygon class="st3" points="771.95,0 721.12,109 726.64,109 777.47,0 "/>
<text transform="matrix(1 0 0 1 393.3154 67.5313)" class="st3 st4 st5">PLACE</text>
<text transform="matrix(1 0 0 1 585.3154 67.5313)" class="st3 st4 st5">NAME</text>
<text transform="matrix(1 0 0 1 786.3155 67.5313)" class="st3 st4 st5">TIME</text>
<text transform="matrix(1 0 0 1 390.1299 157.1494)" class="st3 st6 st7">1st</text>
<text transform="matrix(1 0 0 1 367.1147 206.8169)" class="st3 st6 st7">2nd</text>
<text transform="matrix(1 0 0 1 344.9521 256.4843)" class="st3 st6 st7">3rd</text>
<text transform="matrix(1 0 0 1 318.7886 306.1518)" class="st3 st6 st7">4th</text>
<text transform="matrix(1 0 0 1 298.4785 355.8192)" class="st3 st6 st7">5th</text>
<text transform="matrix(1 0 0 1 275.3159 405.4866)" class="st3 st6 st7">6th</text>
<text transform="matrix(1 0 0 1 256.3159 455.1541)" class="st3 st6 st7">7th</text>
<rect x="519.5" y="133.96" class="st8" width="170.32" height="30.36"/>
<text transform="matrix(1 0 0 1 570.4224 157.1494)" class="st3 st6 st7">John</text>
<rect x="498.82" y="183.63" class="st8" width="175" height="30.36"/>
<text transform="matrix(1 0 0 1 537.1348 206.8169)" class="st3 st6 st7">Andew</text>
<rect x="475.82" y="233.3" class="st8" width="172" height="30.36"/>
<text transform="matrix(1 0 0 1 523.0278 256.4843)" class="st3 st6 st7">Emily</text>
<rect x="453.82" y="282.97" class="st8" width="175" height="30.36"/>
<text transform="matrix(1 0 0 1 496.6494 306.1518)" class="st3 st6 st7">Daniel</text>
<rect x="433.82" y="332.63" class="st8" width="171" height="30.36"/>
<text transform="matrix(1 0 0 1 471.2534 355.8192)" class="st3 st6 st7">Kaelon</text>
<rect x="409.82" y="382.3" class="st8" width="176" height="30.36"/>
<text transform="matrix(1 0 0 1 457.5547 405.4866)" class="st3 st6 st7">Azure</text>
<rect x="385.82" y="431.97" class="st8" width="176" height="30.36"/>
<text transform="matrix(1 0 0 1 429.0674 455.1541)" class="st3 st6 st7">James</text>
<rect x="712.5" y="133.96" class="st8" width="172.32" height="30.36"/>
<text transform="matrix(1 0 0 1 777.6387 157.1494)" class="st3 st6 st7">1:12</text>
<rect x="700.33" y="183.63" class="st8" width="168.48" height="30.36"/>
<text transform="matrix(1 0 0 1 762.2608 206.8169)" class="st3 st6 st7">1:14</text>
<rect x="673.15" y="233.3" class="st8" width="170.67" height="30.36"/>
<text transform="matrix(1 0 0 1 733.4156 256.4843)" class="st3 st6 st7">1:20</text>
<rect x="649.93" y="282.97" class="st8" width="167.88" height="30.36"/>
<text transform="matrix(1 0 0 1 712.8575 306.1518)" class="st3 st6 st7">1:21</text>
<rect x="625.67" y="332.63" class="st8" width="173.15" height="30.36"/>
<text transform="matrix(1 0 0 1 687.8555 355.8192)" class="st3 st6 st7">1:29</text>
<rect x="601.51" y="382.3" class="st8" width="176.3" height="30.36"/>
<text transform="matrix(1 0 0 1 664.5977 405.4866)" class="st3 st6 st7">1:34</text>
<rect x="581.67" y="431.97" class="st8" width="177.15" height="30.36"/>
<text transform="matrix(1 0 0 1 646.1431 455.1541)" class="st3 st6 st7">1:37</text>
<polygon class="st0" points="578.82,825.13 7.58,825.13 177.05,463 750.82,463 "/>
<polygon class="st1" points="389.82,826 195.58,826 367.05,459.13 563.82,459.13 "/>
<polygon class="st2" points="191.48,829.94 196.82,830 370.3,459.13 364.79,459.13 "/>
<polygon class="st2" points="384.81,829.94 390.82,830 563.64,459.13 558.12,459.13 "/>
<text transform="matrix(1 0 0 1 222.1299 504.8215)" class="st3 st6 st7">8th</text>
<text transform="matrix(1 0 0 1 199.1147 554.4894)" class="st3 st6 st7">9th</text>
<text transform="matrix(1 0 0 1 176.9521 604.1564)" class="st3 st6 st7">10th</text>
<text transform="matrix(1 0 0 1 150.7886 653.8234)" class="st3 st6 st7">11th</text>
<text transform="matrix(1 0 0 1 130.4785 703.4913)" class="st3 st6 st7">12th</text>
<text transform="matrix(1 0 0 1 107.3159 753.1592)" class="st3 st6 st7">13th</text>
<text transform="matrix(1 0 0 1 88.3159 802.8262)" class="st3 st6 st7">14th</text>
<rect x="351.5" y="481.64" class="st8" width="170.32" height="30.36"/>
<text transform="matrix(1 0 0 1 397.4585 504.8215)" class="st3 st6 st7">Percy</text>
<rect x="330.82" y="531.3" class="st8" width="175" height="30.36"/>
<text transform="matrix(1 0 0 1 364.5254 554.4885)" class="st3 st6 st7">Phoebe</text>
<rect x="307.82" y="580.97" class="st8" width="172" height="30.36"/>
<text transform="matrix(1 0 0 1 370.2075 604.1564)" class="st3 st6 st7">Kat</text>
<rect x="285.82" y="630.64" class="st8" width="175" height="30.36"/>
<text transform="matrix(1 0 0 1 342.2744 653.8239)" class="st3 st6 st7">Paul</text>
<rect x="265.82" y="680.31" class="st8" width="171" height="30.36"/>
<text transform="matrix(1 0 0 1 319.9741 703.4913)" class="st3 st6 st7">Jack</text>
<rect x="241.82" y="729.97" class="st8" width="176" height="30.36"/>
<text transform="matrix(1 0 0 1 283.7856 753.1588)" class="st3 st6 st7">Brodie</text>
<rect x="217.82" y="779.64" class="st8" width="176" height="30.36"/>
<text transform="matrix(1 0 0 1 246.0376 802.8262)" class="st3 st6 st7">Anthony</text>
<rect x="544.5" y="481.64" class="st8" width="172.32" height="30.36"/>
<text transform="matrix(1 0 0 1 605.9288 504.8215)" class="st3 st6 st7">1:38</text>
<rect x="532.33" y="531.3" class="st8" width="168.48" height="30.36"/>
<text transform="matrix(1 0 0 1 590.21 554.4885)" class="st3 st6 st7">1:40</text>
<rect x="505.15" y="580.97" class="st8" width="170.67" height="30.36"/>
<text transform="matrix(1 0 0 1 565.4156 604.1564)" class="st3 st6 st7">1:43</text>
<rect x="481.93" y="630.64" class="st8" width="167.88" height="30.36"/>
<text transform="matrix(1 0 0 1 540.7794 653.8239)" class="st3 st6 st7">1:45</text>
<rect x="457.67" y="680.31" class="st8" width="173.15" height="30.36"/>
<text transform="matrix(1 0 0 1 518.5596 703.4913)" class="st3 st6 st7">1:49</text>
<rect x="433.51" y="729.97" class="st8" width="176.3" height="30.36"/>
<text transform="matrix(1 0 0 1 500.648 753.1588)" class="st3 st6 st7">1:51</text>
<rect x="413.67" y="779.64" class="st8" width="177.15" height="30.36"/>
<text transform="matrix(1 0 0 1 478.4434 802.8262)" class="st3 st6 st7">1:52</text>
<polygon class="st2" points="747.63,462.13 577.81,825 7.85,825 177.66,462.13 172.14,462.13 0,830 581,830 753.14,462.13 "/>
</svg>
