<?xml version="1.0" encoding="utf-8"?>
<!-- Generator: Adobe Illustrator 24.0.0, SVG Export Plug-In . SVG Version: 6.00 Build 0)  -->
<svg version="1.1" id="Layer_1" xmlns="http://www.w3.org/2000/svg" xmlns:xlink="http://www.w3.org/1999/xlink" x="0px" y="0px"
	 viewBox="0 0 881.9 777" style="enable-background:new 0 0 881.9 777;" xml:space="preserve">
<style type="text/css">
	.st0{fill:#DC4C41;}
	.st1{fill:#542D32;}
	.st2{fill:#262626;}
	.st3{fill:#FFFFFF;}
</style>
<polygon class="st0" points="0.2,162 0.2,770.8 844.8,770.8 844.8,82 35.5,82 "/>
<rect x="125.3" y="162" class="st1" width="118.9" height="610.9"/>
<rect x="363.1" y="162" class="st1" width="118.9" height="610.9"/>
<rect x="602.9" y="162" class="st1" width="118.9" height="610.9"/>
<polygon class="st2" points="0,162 844.7,162 881.9,82 35,82 "/>
<g>
	<path class="st3" d="M57.8,114.8v20.9H52v-10.1l-4.2,4.8h-1.7l-4.2-4.8v10.1h-5.7v-20.9h2l8.8,8.9l8.8-8.9H57.8z"/>
	<path class="st3" d="M72.4,114.7c1.4,0,2.7,0.2,4,0.7s2.4,1.2,3.4,2.1s1.8,2,2.4,3.4c0.6,1.3,0.9,2.8,0.9,4.5
		c0,1.7-0.3,3.2-0.9,4.5c-0.6,1.3-1.4,2.4-2.4,3.4s-2.1,1.6-3.4,2.1c-1.3,0.5-2.6,0.7-4,0.7s-2.7-0.2-4-0.7s-2.4-1.2-3.4-2.1
		c-1-0.9-1.8-2.1-2.4-3.4c-0.6-1.3-0.9-2.8-0.9-4.5c0-1.7,0.3-3.2,0.9-4.5s1.4-2.4,2.4-3.4c1-0.9,2.1-1.6,3.4-2.1
		C69.7,114.9,71,114.7,72.4,114.7z M72.4,120c-0.9,0-1.7,0.2-2.4,0.7c-0.7,0.5-1.3,1.1-1.7,1.9s-0.6,1.7-0.6,2.8s0.2,1.9,0.6,2.7
		c0.4,0.8,1,1.4,1.7,1.9s1.5,0.7,2.4,0.7s1.7-0.2,2.5-0.7s1.3-1.1,1.7-1.9c0.4-0.8,0.6-1.7,0.6-2.7s-0.2-1.9-0.6-2.8s-1-1.4-1.7-1.9
		C74.2,120.3,73.3,120,72.4,120z"/>
	<path class="st3" d="M105.8,115.1V136h-2l-11-10.4v10.1h-5.7v-20.9h2l11,10.6v-10.3L105.8,115.1L105.8,115.1z"/>
</g>
<g>
	<path class="st3" d="M172.9,115.1v5.1h-6v15.4h-5.7v-15.4h-6v-5.1C155.1,115.1,172.9,115.1,172.9,115.1z"/>
	<path class="st3" d="M194.7,115.1v12.5c0,1.8-0.4,3.3-1.3,4.6c-0.8,1.3-2,2.3-3.4,3c-1.4,0.7-3,1-4.7,1c-1.7,0-3.3-0.3-4.7-1
		c-1.4-0.7-2.5-1.7-3.4-3c-0.8-1.3-1.3-2.8-1.3-4.6v-12.5h5.7v12.1c0,1.1,0.3,1.9,0.9,2.6s1.5,1,2.7,1s2.1-0.4,2.7-1
		c0.6-0.7,0.9-1.5,0.9-2.6v-12.1H194.7z"/>
	<path class="st3" d="M213.8,123.1v4.3h-8.2v3.3h9.2v4.9h-15v-20.6h15v4.8h-9.2v3.3L213.8,123.1L213.8,123.1z"/>
</g>
<g>
	<path class="st3" d="M297.6,115.1l-6.7,20.6h-4.3l-3.6-10.9l-3.6,10.9h-4.3l-6.8-20.6h6.7l2.8,10.7l3.2-10.7h3.9l3.3,10.7l2.7-10.7
		H297.6z"/>
	<path class="st3" d="M314.5,123.1v4.3h-8.2v3.3h9.2v4.9h-15v-20.6h15v4.8h-9.2v3.3L314.5,123.1L314.5,123.1z"/>
	<path class="st3" d="M329.2,114.7c2,0,3.9,0.4,5.5,1.2c1.7,0.8,3,2,4,3.6c1,1.6,1.5,3.4,1.5,5.6c0,1.5-0.3,2.9-0.8,4.3
		s-1.2,2.5-2.1,3.5c-0.9,1-2,1.8-3.3,2.4c-1.3,0.6-2.7,0.9-4.3,0.9c-0.9,0-1.9,0-3-0.1s-2.1-0.2-3.1-0.3c-1-0.1-1.9-0.3-2.8-0.4
		v-19.8c1.3-0.2,2.7-0.4,4.2-0.6C326.5,114.7,327.9,114.7,329.2,114.7z M329.4,120c-0.5,0-1,0-1.5,0.1s-1,0.2-1.4,0.3v10
		c0.5,0.1,1,0.2,1.4,0.3c0.5,0.1,1,0.1,1.4,0.1c1,0,1.9-0.2,2.6-0.7c0.7-0.5,1.3-1.1,1.7-1.9c0.4-0.8,0.6-1.7,0.6-2.7
		c0-1.6-0.4-2.9-1.3-3.9C332.2,120.5,331,120,329.4,120z"/>
</g>
<g>
	<path class="st3" d="M406.6,115.1v5.1h-6v15.4h-5.7v-15.4h-6v-5.1C388.8,115.1,406.6,115.1,406.6,115.1z"/>
	<path class="st3" d="M415.8,115.1v8.1h7.4v-8.1h5.7v20.6h-5.7v-7.4h-7.4v7.4h-5.7v-20.6H415.8z"/>
	<path class="st3" d="M452.7,115.1v12.5c0,1.8-0.4,3.3-1.3,4.6c-0.8,1.3-2,2.3-3.4,3c-1.4,0.7-3,1-4.7,1c-1.7,0-3.3-0.3-4.7-1
		c-1.4-0.7-2.5-1.7-3.4-3c-0.8-1.3-1.3-2.8-1.3-4.6v-12.5h5.7v12.1c0,1.1,0.3,1.9,0.9,2.6c0.6,0.7,1.5,1,2.7,1s2.1-0.4,2.7-1
		c0.6-0.7,0.9-1.5,0.9-2.6v-12.1H452.7z"/>
</g>
<g>
	<path class="st3" d="M529.1,123.7v5.1h-7.3v6.9h-5.7v-20.6h14.6v5.1h-8.8v3.5L529.1,123.7L529.1,123.7z"/>
	<path class="st3" d="M544.3,115.1c1,0,2.1,0.1,3,0.4s1.9,0.7,2.7,1.3c0.8,0.6,1.4,1.3,1.9,2.2s0.7,1.9,0.7,3.2
		c0,1.5-0.4,2.8-1.3,3.8s-2,1.7-3.3,2.1l5.7,7.5h-7l-5.5-8.2v8.2h-5.7v-20.6H544.3z M541.3,120.5v3.8c0.3,0.1,0.7,0.2,1.1,0.3
		c0.4,0.1,0.8,0.1,1.3,0.1c0.9,0,1.7-0.2,2.3-0.5s0.9-0.9,0.9-1.6c0-0.8-0.3-1.4-0.9-1.7c-0.6-0.3-1.3-0.4-2.3-0.4H541.3z"/>
	<path class="st3" d="M569.3,130.6v5.1h-12.7v-5.1h3.5v-10.4h-3.5v-5.1h12.7v5.1h-3.5v10.4H569.3z"/>
</g>
<g>
	<path class="st3" d="M641.8,114.7c1.2,0,2.4,0.2,3.6,0.4c1.2,0.3,2.1,0.7,2.8,1.2v5.6c-0.9-0.5-1.8-0.9-2.6-1.3
		c-0.9-0.4-1.9-0.6-3-0.6c-0.7,0-1.3,0.1-1.8,0.3s-0.7,0.5-0.7,1c0,0.5,0.3,0.9,0.9,1.2s1.3,0.6,2.2,0.9l2.2,0.8
		c1.5,0.6,2.5,1.3,3.2,2.3s0.9,2,0.9,2.9c0,1.3-0.4,2.5-1.1,3.5c-0.8,1-1.8,1.8-3.1,2.4s-2.7,0.9-4.3,0.9c-1.2,0-2.4-0.2-3.7-0.6
		c-1.2-0.4-2.3-1-3.2-1.6v-5.6c1,0.7,2,1.3,3.2,1.8s2.3,0.7,3.4,0.7c0.7,0,1.3-0.1,1.7-0.3s0.7-0.5,0.7-0.9c0-0.3-0.2-0.6-0.5-0.8
		s-0.8-0.4-1.3-0.6l-2.9-0.9c-1.2-0.4-2-0.9-2.7-1.5c-0.6-0.6-1.1-1.3-1.3-2.1s-0.4-1.6-0.4-2.4c0-1.4,0.4-2.7,1.1-3.7
		c0.7-1,1.7-1.7,2.9-2.3C639.2,114.9,640.5,114.7,641.8,114.7z"/>
	<path class="st3" d="M663.1,114.8l9.5,20.9h-6.7l-1-2.8h-6.5l-1,2.8h-6.7l9.5-20.9H663.1z M661.6,124.1l-1.6,4.2h3.1L661.6,124.1z"
		/>
	<path class="st3" d="M689.3,115.1v5.1h-6v15.4h-5.7v-15.4h-6v-5.1C671.5,115.1,689.3,115.1,689.3,115.1z"/>
</g>
<g>
	<path class="st3" d="M756.7,114.7c1.2,0,2.4,0.2,3.6,0.4c1.2,0.3,2.1,0.7,2.8,1.2v5.6c-0.9-0.5-1.8-0.9-2.6-1.3
		c-0.9-0.4-1.9-0.6-3-0.6c-0.7,0-1.3,0.1-1.8,0.3s-0.7,0.5-0.7,1c0,0.5,0.3,0.9,0.9,1.2s1.3,0.6,2.2,0.9l2.2,0.8
		c1.5,0.6,2.5,1.3,3.2,2.3s0.9,2,0.9,2.9c0,1.3-0.4,2.5-1.1,3.5c-0.8,1-1.8,1.8-3.1,2.4s-2.7,0.9-4.3,0.9c-1.2,0-2.4-0.2-3.7-0.6
		c-1.2-0.4-2.3-1-3.2-1.6v-5.6c1,0.7,2,1.3,3.2,1.8s2.3,0.7,3.4,0.7c0.7,0,1.3-0.1,1.7-0.3s0.7-0.5,0.7-0.9c0-0.3-0.2-0.6-0.5-0.8
		s-0.8-0.4-1.3-0.6l-2.9-0.9c-1.2-0.4-2-0.9-2.7-1.5c-0.6-0.6-1.1-1.3-1.3-2.1s-0.4-1.6-0.4-2.4c0-1.4,0.4-2.7,1.1-3.7
		c0.7-1,1.7-1.7,2.9-2.3C754.1,114.9,755.3,114.7,756.7,114.7z"/>
	<path class="st3" d="M786.3,115.1v12.5c0,1.8-0.4,3.3-1.3,4.6c-0.8,1.3-2,2.3-3.4,3c-1.4,0.7-3,1-4.7,1c-1.7,0-3.3-0.3-4.7-1
		c-1.4-0.7-2.5-1.7-3.4-3c-0.8-1.3-1.3-2.8-1.3-4.6v-12.5h5.7v12.1c0,1.1,0.3,1.9,0.9,2.6s1.5,1,2.7,1c1.2,0,2.1-0.4,2.7-1
		c0.6-0.7,0.9-1.5,0.9-2.6v-12.1H786.3z"/>
	<path class="st3" d="M810.3,115.1V136h-2l-11-10.4v10.1h-5.7v-20.9h2l11,10.6v-10.3L810.3,115.1L810.3,115.1z"/>
</g>
<rect x="1.2" y="160.9" class="st2" width="10.3" height="608.9"/>
<rect x="834.6" y="162" class="st2" width="10.3" height="608.9"/>
<rect x="715.5" y="162" class="st2" width="10.3" height="608.9"/>
<rect x="596.5" y="162" class="st2" width="10.3" height="608.9"/>
<rect x="477.4" y="162" class="st2" width="10.3" height="608.9"/>
<rect x="358.4" y="162" class="st2" width="10.3" height="608.9"/>
<rect x="239.3" y="162" class="st2" width="10.3" height="608.9"/>
<rect x="120.3" y="162" class="st2" width="10.2" height="608.9"/>
<rect x="6.3" y="158.9" class="st2" width="838.5" height="10.3"/>
<rect x="1.2" y="766.8" class="st2" width="843.6" height="10.3"/>
<rect x="35" class="st2" width="846.7" height="82"/>
<g>
	<path class="st3" d="M397,26.7l16.1,35.4h-11.4l-1.7-4.7h-11l-1.7,4.7H376l16.1-35.4H397z M394.6,42.4l-2.6,7.2h5.3L394.6,42.4z"/>
	<path class="st3" d="M432.8,27.2c1.8,0,3.5,0.3,5.2,0.9c1.7,0.6,3.2,1.5,4.5,2.6c1.4,1.1,2.4,2.5,3.3,4.2s1.2,3.5,1.2,5.5
		c0,2.7-0.6,5-1.9,6.9s-2.9,3.4-4.9,4.4c-2,1-4.1,1.5-6.4,1.5c-1.3,0-2.5-0.1-3.5-0.4s-1.9-0.6-2.7-1v10.3h-9.7V27.2H432.8z
		 M427.6,36.3v8.1c0.6,0.2,1.2,0.4,1.9,0.5s1.4,0.2,2.2,0.2c1.5,0,2.8-0.5,3.8-1.4c1-1,1.5-2.1,1.5-3.3c0-1.4-0.5-2.5-1.5-3.1
		c-1-0.6-2.3-1-3.8-1H427.6z"/>
	<path class="st3" d="M468.2,27.2c1.8,0,3.5,0.2,5.2,0.7s3.2,1.2,4.5,2.2c1.4,1,2.4,2.3,3.3,3.8c0.8,1.5,1.2,3.3,1.2,5.4
		c0,2.6-0.7,4.8-2.2,6.5c-1.5,1.7-3.4,2.9-5.6,3.5l9.6,12.8h-11.9L463,48.2v13.8h-9.7V27.2H468.2z M463,36.3v6.5
		c0.6,0.2,1.2,0.4,1.9,0.5s1.4,0.2,2.2,0.2c1.5,0,2.8-0.3,3.8-0.9c1-0.6,1.5-1.5,1.5-2.8c0-1.4-0.5-2.4-1.5-2.8
		c-1-0.5-2.3-0.7-3.8-0.7L463,36.3L463,36.3z"/>
	<path class="st3" d="M510.6,53.5v8.6h-21.5v-8.6h5.9V35.8h-5.9v-8.6h21.5v8.6h-5.9v17.7H510.6z"/>
	<path class="st3" d="M529.2,27.2v26.3h15.7v8.6h-25.4V27.2H529.2z"/>
</g>
<polygon class="st3" points="835.4,68.5 829.7,62.7 849.7,42.6 829.7,23.5 835.4,17.5 861.5,42.5 "/>
<polygon class="st3" points="92.2,68.6 66.1,43.6 92.1,17.6 97.9,23.4 77.8,43.5 97.8,62.6 "/>
<rect x="6.3" y="280.5" class="st2" width="838.5" height="10.3"/>
<rect x="6.3" y="402" class="st2" width="838.5" height="10.3"/>
<rect x="6.3" y="523.6" class="st2" width="838.5" height="10.3"/>
<rect x="6.3" y="645.2" class="st2" width="838.5" height="10.3"/>
<g>
	<path class="st3" d="M792.8,203.2v11.7h-15.8v7.4c0.9-0.4,2.1-0.7,3.4-0.9s2.5-0.4,3.6-0.4c2.2,0,4.2,0.5,6.1,1.5
		c1.9,1,3.4,2.5,4.6,4.4s1.8,4.3,1.8,7.1c0,4.1-0.9,7.5-2.7,10.1s-4.1,4.5-7,5.8c-2.9,1.2-6,1.8-9.3,1.8c-2.5,0-4.5-0.2-6.3-0.7
		s-3.2-1-4.4-1.7s-2.2-1.3-3-1.8v-10.5c2.1,1,3.9,1.8,5.5,2.3c1.6,0.5,3.5,0.8,5.5,0.8c2.5,0,4.5-0.3,5.9-0.9
		c1.4-0.6,2.1-1.7,2.1-3.5c0-1.5-0.7-2.7-2-3.6c-1.3-0.9-3.2-1.4-5.7-1.4c-1.8,0-3.4,0.1-4.9,0.4s-2.9,0.6-4.2,1v-28.9L792.8,203.2
		L792.8,203.2z"/>
</g>
<g>
	<path class="st3" d="M775.4,359.9v11.7h-32.8v-11.7h10v-18.8c-1.4,1.1-2.9,2.1-4.7,2.8c-1.8,0.8-3.4,1.3-4.9,1.8v-13.1
		c2-0.7,4.3-1.8,6.7-3.2c2.5-1.4,4.5-3.2,6.2-5.3h10v35.7H775.4z"/>
	<path class="st3" d="M800.4,323.1c3.3,0,6.3,0.6,8.8,1.9c2.5,1.3,4.5,3,5.9,5.2s2.1,4.8,2.1,7.6c0,2.4-0.3,4.5-0.8,6.3
		c-0.5,1.8-1.4,3.5-2.4,5.2c-1.1,1.6-2.4,3.4-4,5.2c-1.6,1.8-3.4,4-5.5,6.4h13.2v10.6h-32.2v-5.4c4.3-4.4,7.7-8.2,10.4-11.2
		s4.7-5.6,5.9-7.8s1.9-4.1,1.9-5.8c0-1.8-0.6-3.2-1.7-4.4c-1.1-1.1-2.6-1.7-4.5-1.7c-2,0-4,0.5-6.1,1.7c-2.1,1.1-3.8,2.5-5.2,4.1
		v-13.4c1.6-1.4,3.7-2.5,6.3-3.4C795.1,323.5,797.7,323.1,800.4,323.1z"/>
</g>
<g>
	<path class="st3" d="M775.4,480.8v11.7h-32.8v-11.7h10v-18.8c-1.4,1.1-2.9,2.1-4.7,2.8c-1.8,0.8-3.4,1.3-4.9,1.8v-13.1
		c2-0.7,4.3-1.8,6.7-3.2c2.5-1.4,4.5-3.2,6.2-5.3h10v35.7H775.4z"/>
	<path class="st3" d="M787.9,492.5c2.8-2.7,5.5-5.4,8.1-8c2.6-2.6,4.7-5.4,6.5-8.4c-1,0.7-2,1.1-2.8,1.2c-0.8,0.2-1.7,0.3-2.5,0.3
		c-2.6,0-5.1-0.6-7.4-1.9s-4.2-3.1-5.6-5.5c-1.4-2.4-2.2-5.1-2.2-8.4c0-3.6,0.8-6.7,2.5-9.4s3.9-4.8,6.7-6.2
		c2.8-1.5,5.9-2.2,9.2-2.2c3.2,0,6.1,0.7,9,2.2c2.8,1.5,5.1,3.6,6.9,6.3c1.8,2.7,2.7,5.9,2.7,9.7c0,3.2-0.5,6.3-1.6,9.3
		s-2.4,5.9-4,8.5s-3.3,5.1-5.1,7.2s-3.4,3.9-4.9,5.3L787.9,492.5L787.9,492.5z M800.3,466.3c1.5,0,2.7-0.5,3.6-1.6s1.3-2.3,1.3-3.7
		s-0.4-2.6-1.3-3.7s-2.1-1.6-3.6-1.6s-2.7,0.5-3.6,1.6s-1.3,2.3-1.3,3.7s0.4,2.6,1.3,3.7S798.8,466.3,800.3,466.3z"/>
</g>
<g>
	<path class="st3" d="M758,565c3.3,0,6.3,0.6,8.8,1.9c2.5,1.3,4.5,3,5.9,5.2s2.1,4.8,2.1,7.6c0,2.4-0.3,4.5-0.8,6.3
		c-0.5,1.8-1.4,3.5-2.4,5.2c-1.1,1.7-2.4,3.4-4,5.2c-1.6,1.8-3.4,4-5.5,6.4h13.2v10.6H743v-5.4c4.3-4.4,7.7-8.2,10.4-11.2
		s4.7-5.6,5.9-7.8s1.9-4.1,1.9-5.8c0-1.8-0.6-3.2-1.7-4.3s-2.6-1.7-4.5-1.7c-2,0-4,0.5-6.1,1.7s-3.8,2.5-5.2,4.1v-13.4
		c1.6-1.4,3.7-2.5,6.3-3.4C752.6,565.4,755.3,565,758,565z"/>
	<path class="st3" d="M813.5,566.1c-2.8,2.7-5.5,5.4-8.1,8c-2.6,2.6-4.7,5.4-6.5,8.4c1-0.7,2-1.1,2.8-1.2s1.7-0.3,2.5-0.3
		c2.6,0,5.1,0.6,7.4,1.9c2.3,1.3,4.2,3.1,5.6,5.5c1.4,2.4,2.2,5.1,2.2,8.3c0,3.6-0.8,6.7-2.5,9.4s-3.9,4.8-6.7,6.2
		c-2.8,1.5-5.9,2.2-9.2,2.2c-3.2,0-6.1-0.7-9-2.2s-5.1-3.6-6.9-6.3c-1.8-2.7-2.7-5.9-2.7-9.7c0-3.2,0.5-6.3,1.6-9.3s2.4-5.9,4-8.5
		c1.6-2.7,3.3-5.1,5.1-7.2s3.4-3.9,4.9-5.3L813.5,566.1L813.5,566.1z M801,592.2c-1.5,0-2.7,0.5-3.6,1.6s-1.3,2.3-1.3,3.7
		c0,1.4,0.4,2.7,1.3,3.7s2.1,1.6,3.6,1.6s2.7-0.5,3.6-1.6s1.3-2.3,1.3-3.7c0-1.4-0.4-2.7-1.3-3.7S802.6,592.2,801,592.2z"/>
</g>
<g>
	<path class="st3" d="M673.1,203.2v26.3h5.5v10.6h-5.5v10.5h-11.8v-10.5H643v-9.2c3.7-4.2,7.2-8.5,10.3-12.8
		c3.2-4.4,6.4-9.3,9.8-14.9L673.1,203.2L673.1,203.2z M661.3,223.3c-0.9,1.3-1.7,2.4-2.2,3.3c-0.5,0.9-1.3,1.8-2.2,3h4.4
		L661.3,223.3L661.3,223.3z"/>
</g>
<g>
	<path class="st3" d="M656.5,359.9v11.7h-32.8v-11.7h10v-18.8c-1.4,1.1-2.9,2.1-4.7,2.8c-1.8,0.8-3.4,1.3-4.9,1.8v-13.1
		c2-0.7,4.3-1.8,6.7-3.2c2.5-1.4,4.5-3.2,6.2-5.3h10v35.7H656.5z"/>
	<path class="st3" d="M698.9,359.9v11.7h-32.8v-11.7h10v-18.8c-1.4,1.1-2.9,2.1-4.7,2.8c-1.8,0.8-3.4,1.3-4.9,1.8v-13.1
		c2-0.7,4.3-1.8,6.7-3.2c2.5-1.4,4.5-3.2,6.2-5.3h10v35.7H698.9z"/>
</g>
<g>
	<path class="st3" d="M656.5,480.8v11.7h-32.8v-11.7h10v-18.8c-1.4,1.1-2.9,2.1-4.7,2.8c-1.8,0.8-3.4,1.3-4.9,1.8v-13.1
		c2-0.7,4.3-1.8,6.7-3.2c2.5-1.4,4.5-3.2,6.2-5.3h10v35.7H656.5z"/>
	<path class="st3" d="M682.1,444c2.9,0,5.5,0.5,7.8,1.6s4.3,2.5,5.7,4.5c1.4,2,2.1,4.4,2.1,7.2c0,2.7-0.6,4.9-1.9,6.6
		c-1.3,1.6-2.7,2.9-4.2,3.6c1.3,0.4,2.5,1.1,3.6,2.2c1.2,1,2.1,2.2,2.8,3.7c0.7,1.4,1.1,3.1,1.1,4.9c0,3.1-0.8,5.8-2.3,8.1
		c-1.5,2.3-3.6,4.1-6.2,5.4c-2.6,1.3-5.5,1.9-8.6,1.9s-6-0.6-8.5-1.9s-4.6-3.1-6.2-5.4s-2.3-5-2.3-8.1c0-1.8,0.4-3.4,1.1-4.9
		c0.7-1.4,1.7-2.7,2.9-3.7c1.2-1,2.4-1.7,3.6-2.2c-1.6-0.8-3-2-4.3-3.6c-1.3-1.6-1.9-3.8-1.9-6.6c0-2.8,0.7-5.2,2.1-7.2
		s3.3-3.5,5.7-4.5C676.6,444.6,679.2,444,682.1,444z M682.1,472.5c-1.4,0-2.5,0.5-3.4,1.4s-1.3,2.2-1.3,3.9s0.4,2.9,1.3,3.8
		s2,1.3,3.4,1.3s2.5-0.4,3.4-1.3s1.3-2.1,1.3-3.8s-0.4-2.9-1.3-3.9S683.4,472.5,682.1,472.5z M682.1,454.7c-1.2,0-2.2,0.4-3,1.2
		s-1.2,2-1.2,3.5c0,1.5,0.4,2.7,1.2,3.6c0.8,0.9,1.8,1.4,3,1.4c1.2,0,2.2-0.5,3-1.4s1.2-2.1,1.2-3.6c0-1.5-0.4-2.7-1.2-3.5
		C684.3,455.1,683.3,454.7,682.1,454.7z"/>
</g>
<g>
	<path class="st3" d="M639,565c3.3,0,6.3,0.6,8.8,1.9c2.5,1.3,4.5,3,5.9,5.2s2.1,4.8,2.1,7.6c0,2.4-0.3,4.5-0.8,6.3
		c-0.5,1.8-1.4,3.5-2.4,5.2c-1.1,1.7-2.4,3.4-4,5.2c-1.6,1.8-3.4,4-5.5,6.4h13.2v10.6h-32.2v-5.4c4.3-4.4,7.7-8.2,10.4-11.2
		s4.7-5.6,5.9-7.8s1.9-4.1,1.9-5.8c0-1.8-0.6-3.2-1.7-4.3s-2.6-1.7-4.5-1.7c-2,0-4,0.5-6.1,1.7s-3.8,2.5-5.2,4.1v-13.4
		c1.6-1.4,3.7-2.5,6.3-3.4C633.7,565.4,636.4,565,639,565z"/>
	<path class="st3" d="M695.2,566.1v11.7h-15.8v7.4c0.9-0.4,2.1-0.7,3.4-0.9s2.5-0.3,3.6-0.3c2.2,0,4.2,0.5,6.1,1.5
		c1.9,1,3.4,2.5,4.6,4.4s1.8,4.3,1.8,7.1c0,4.1-0.9,7.5-2.7,10.1s-4.1,4.5-7,5.8c-2.9,1.2-6,1.8-9.3,1.8c-2.5,0-4.5-0.2-6.3-0.7
		s-3.2-1-4.4-1.7s-2.2-1.3-3-1.8v-10.5c2.1,1,3.9,1.8,5.5,2.3c1.6,0.5,3.5,0.8,5.5,0.8c2.5,0,4.5-0.3,5.9-0.8
		c1.4-0.6,2.1-1.7,2.1-3.5c0-1.5-0.7-2.7-2-3.6c-1.3-0.9-3.2-1.4-5.7-1.4c-1.8,0-3.4,0.1-4.9,0.4c-1.5,0.3-2.9,0.6-4.2,1v-28.9
		L695.2,566.1L695.2,566.1z"/>
</g>
<g>
	<path class="st3" d="M539.3,202.1c3.5,0,6.7,0.6,9.4,1.7c2.8,1.2,4.9,2.8,6.5,4.8c1.6,2.1,2.3,4.4,2.3,7.1c0,3.2-0.9,5.7-2.7,7.5
		s-4,3-6.5,3.4c2.5,0.5,4.7,1.6,6.5,3.3c1.8,1.7,2.7,4.1,2.7,7.4c0,2.9-0.8,5.4-2.5,7.5s-4,3.8-6.8,5c-2.8,1.2-5.9,1.8-9.3,1.8
		c-2.3,0-4.6-0.3-6.8-0.9c-2.2-0.6-4-1.4-5.3-2.4v-11.5c1.6,1,3.2,1.8,4.8,2.4s3.2,0.8,5,0.8c2,0,3.8-0.4,5.2-1.2
		c1.4-0.8,2.1-2,2.1-3.8c0-1.1-0.3-1.9-1.1-2.4c-0.7-0.5-1.6-0.9-2.8-1.1c-1.2-0.2-2.4-0.3-3.6-0.3h-3.5v-9.6h3.5c1.3,0,2.5,0,3.6,0
		c1.2,0,2.1-0.2,2.8-0.6c0.7-0.4,1.1-1.2,1.1-2.3c0-1.7-0.8-3-2.3-3.8c-1.5-0.8-3.2-1.2-5-1.2c-3.2,0-6.1,1.2-8.7,3.7v-11.4
		c1.2-1.1,2.8-2.1,4.6-2.8C534.4,202.5,536.7,202.1,539.3,202.1z"/>
</g>
<g>
	<path class="st3" d="M537.5,359.9v11.7h-32.8v-11.7h10v-18.8c-1.4,1.1-2.9,2.1-4.7,2.8c-1.8,0.8-3.4,1.3-4.9,1.8v-13.1
		c2-0.7,4.3-1.8,6.7-3.2c2.4-1.4,4.5-3.2,6.2-5.3h10v35.7H537.5z"/>
	<path class="st3" d="M563.2,323.1c4.1,0,7.5,1,10.2,3.1c2.8,2,4.8,4.9,6.3,8.6c1.4,3.7,2.1,8.1,2.1,13c0,5-0.7,9.4-2.1,13
		c-1.4,3.7-3.5,6.6-6.3,8.6c-2.8,2-6.2,3.1-10.2,3.1c-4.1,0-7.5-1-10.2-3.1c-2.8-2-4.8-4.9-6.3-8.6c-1.4-3.7-2.1-8-2.1-13
		s0.7-9.4,2.1-13c1.4-3.7,3.5-6.6,6.3-8.6C555.7,324.1,559.1,323.1,563.2,323.1z M563.2,334c-1.8,0-3,1.1-3.8,3.4
		c-0.8,2.3-1.2,5.7-1.2,10.4c0,4.6,0.4,8,1.2,10.3s2.1,3.5,3.8,3.5c1.8,0,3.1-1.2,3.9-3.5c0.8-2.3,1.2-5.8,1.2-10.3
		c0-4.6-0.4-8.1-1.2-10.4C566.2,335.2,565,334,563.2,334z"/>
</g>
<g>
	<path class="st3" d="M537.5,480.8v11.7h-32.8v-11.7h10v-18.8c-1.4,1.1-2.9,2.1-4.7,2.8c-1.8,0.8-3.4,1.3-4.9,1.8v-13.1
		c2-0.7,4.3-1.8,6.7-3.2c2.4-1.4,4.5-3.2,6.2-5.3h10v35.7H537.5z"/>
	<path class="st3" d="M581.5,445.1v5.1c-2.1,4.3-4,8.1-5.8,11.6s-3.3,6.8-4.6,10c-1.3,3.2-2.3,6.5-3,9.8s-1.1,7-1.1,10.9h-15.3
		c0-2.9,0.4-5.8,1.2-8.9c0.8-3,1.8-6.1,3-9.2c1.2-3.1,2.6-6.1,4-9.1c1.5-3,2.8-5.9,4.2-8.6h-16.9v-11.7H581.5z"/>
</g>
<g>
	<path class="st3" d="M520.2,565c3.3,0,6.3,0.6,8.8,1.9c2.5,1.3,4.5,3,5.9,5.2s2.1,4.8,2.1,7.6c0,2.4-0.3,4.5-0.8,6.3
		c-0.5,1.8-1.4,3.5-2.4,5.2c-1.1,1.7-2.4,3.4-4,5.2c-1.6,1.8-3.4,4-5.5,6.4h13.2v10.6h-32.2v-5.4c4.3-4.4,7.7-8.2,10.4-11.2
		s4.7-5.6,5.9-7.8s1.9-4.1,1.9-5.8c0-1.8-0.6-3.2-1.7-4.3s-2.6-1.7-4.5-1.7c-2,0-4,0.5-6.1,1.7c-2.1,1.1-3.8,2.5-5.2,4.1v-13.4
		c1.6-1.4,3.7-2.5,6.3-3.4C514.8,565.4,517.5,565,520.2,565z"/>
	<path class="st3" d="M575.4,566.1v26.3h5.5V603h-5.5v10.5h-11.8V603h-18.3v-9.2c3.7-4.2,7.2-8.5,10.3-12.8
		c3.2-4.4,6.4-9.3,9.8-14.9L575.4,566.1L575.4,566.1z M563.6,586.2c-0.9,1.3-1.7,2.4-2.2,3.3c-0.5,0.8-1.3,1.8-2.2,3h4.4
		L563.6,586.2L563.6,586.2z"/>
</g>
<g>
	<path class="st3" d="M422.5,202.1c3.4,0,6.3,0.6,8.8,1.9c2.5,1.3,4.5,3,5.9,5.2s2.1,4.8,2.1,7.6c0,2.4-0.3,4.4-0.8,6.3
		c-0.5,1.8-1.4,3.6-2.4,5.2c-1.1,1.6-2.4,3.4-4,5.2c-1.6,1.8-3.4,4-5.5,6.4h13.2v10.6h-32.2v-5.4c4.3-4.4,7.7-8.2,10.4-11.2
		c2.7-3,4.7-5.6,5.9-7.8s1.9-4.1,1.9-5.8c0-1.8-0.6-3.2-1.7-4.4s-2.6-1.7-4.5-1.7c-2,0-4,0.6-6.1,1.7s-3.8,2.5-5.2,4.1v-13.4
		c1.6-1.4,3.7-2.5,6.3-3.4C417.1,202.6,419.8,202.1,422.5,202.1z"/>
</g>
<g>
	<path class="st3" d="M409.9,371.5c2.8-2.7,5.5-5.4,8.1-8s4.7-5.4,6.5-8.4c-1,0.7-2,1.1-2.8,1.2c-0.9,0.2-1.7,0.3-2.5,0.3
		c-2.6,0-5.1-0.6-7.4-1.9s-4.2-3.1-5.6-5.5c-1.4-2.4-2.2-5.1-2.2-8.4c0-3.6,0.8-6.7,2.5-9.4s3.9-4.8,6.7-6.2
		c2.8-1.5,5.9-2.2,9.2-2.2c3.2,0,6.1,0.7,9,2.2c2.8,1.5,5.1,3.6,6.9,6.3s2.6,5.9,2.6,9.7c0,3.2-0.5,6.3-1.6,9.3s-2.4,5.9-4,8.5
		s-3.3,5.1-5.1,7.2s-3.4,3.9-4.9,5.3L409.9,371.5L409.9,371.5z M422.4,345.4c1.5,0,2.7-0.5,3.6-1.6s1.3-2.3,1.3-3.7
		s-0.4-2.6-1.3-3.7s-2.1-1.6-3.6-1.6s-2.7,0.5-3.6,1.6s-1.3,2.3-1.3,3.7s0.4,2.6,1.3,3.7S420.9,345.4,422.4,345.4z"/>
</g>
<g>
	<path class="st3" d="M418.6,480.8v11.7h-32.8v-11.7h10v-18.8c-1.4,1.1-2.9,2.1-4.7,2.8c-1.8,0.8-3.4,1.3-4.9,1.8v-13.1
		c2-0.7,4.3-1.8,6.7-3.2s4.5-3.2,6.2-5.3h10v35.7H418.6z"/>
	<path class="st3" d="M456.8,445.1c-2.8,2.7-5.5,5.4-8.1,8s-4.7,5.4-6.5,8.4c1-0.7,2-1.1,2.8-1.2c0.9-0.2,1.7-0.3,2.5-0.3
		c2.6,0,5.1,0.6,7.4,1.9s4.2,3.1,5.6,5.5c1.4,2.4,2.2,5.1,2.2,8.4c0,3.6-0.8,6.7-2.5,9.4s-3.9,4.8-6.7,6.2c-2.8,1.5-5.9,2.2-9.2,2.2
		c-3.2,0-6.1-0.7-9-2.2c-2.8-1.5-5.1-3.6-6.9-6.3c-1.8-2.7-2.6-5.9-2.6-9.7c0-3.2,0.5-6.3,1.6-9.3s2.4-5.9,4-8.5
		c1.6-2.7,3.3-5.1,5.1-7.2s3.4-3.9,4.9-5.3L456.8,445.1L456.8,445.1z M444.3,471.3c-1.5,0-2.7,0.5-3.6,1.6s-1.3,2.3-1.3,3.7
		c0,1.4,0.4,2.6,1.3,3.7s2.1,1.6,3.6,1.6s2.7-0.5,3.6-1.6s1.3-2.3,1.3-3.7s-0.4-2.6-1.3-3.7S445.8,471.3,444.3,471.3z"/>
</g>
<g>
	<path class="st3" d="M401.2,565c3.4,0,6.3,0.6,8.8,1.9c2.5,1.3,4.5,3,5.9,5.2s2.1,4.8,2.1,7.6c0,2.4-0.3,4.5-0.8,6.3
		c-0.5,1.8-1.4,3.5-2.4,5.2c-1.1,1.7-2.4,3.4-4,5.2c-1.6,1.8-3.4,4-5.5,6.4h13.2v10.6h-32.2v-5.4c4.3-4.4,7.7-8.2,10.4-11.2
		s4.7-5.6,5.9-7.8s1.9-4.1,1.9-5.8c0-1.8-0.6-3.2-1.7-4.3s-2.6-1.7-4.5-1.7c-2,0-4,0.5-6.1,1.7s-3.8,2.5-5.2,4.1v-13.4
		c1.6-1.4,3.7-2.5,6.3-3.4C395.9,565.4,398.5,565,401.2,565z"/>
	<path class="st3" d="M441.6,565c3.5,0,6.7,0.6,9.4,1.7c2.8,1.2,4.9,2.8,6.5,4.8c1.6,2,2.3,4.4,2.3,7.1c0,3.2-0.9,5.7-2.7,7.5
		c-1.8,1.9-4,3-6.5,3.4c2.5,0.5,4.7,1.6,6.5,3.3c1.8,1.7,2.7,4.2,2.7,7.4c0,2.9-0.9,5.4-2.5,7.5c-1.7,2.2-4,3.8-6.8,5
		c-2.8,1.2-5.9,1.8-9.3,1.8c-2.3,0-4.6-0.3-6.8-0.9c-2.2-0.6-4-1.4-5.3-2.4v-11.5c1.6,1,3.2,1.8,4.8,2.4s3.2,0.8,5,0.8
		c2,0,3.8-0.4,5.2-1.2c1.4-0.8,2.1-2,2.1-3.8c0-1.1-0.4-1.9-1.1-2.4s-1.6-0.9-2.8-1.1c-1.2-0.2-2.4-0.3-3.6-0.3h-3.5v-9.6h3.5
		c1.3,0,2.5,0,3.6,0c1.2,0,2.1-0.2,2.8-0.6c0.7-0.4,1.1-1.2,1.1-2.3c0-1.7-0.8-3-2.3-3.8c-1.5-0.8-3.2-1.2-5-1.2
		c-3.2,0-6.1,1.2-8.7,3.7V569c1.2-1.1,2.8-2.1,4.6-2.8C436.7,565.4,439,565,441.6,565z"/>
</g>
<g>
	<path class="st3" d="M399.1,686c3.5,0,6.7,0.6,9.4,1.7c2.8,1.2,4.9,2.8,6.5,4.8c1.6,2,2.3,4.4,2.3,7.1c0,3.2-0.9,5.7-2.7,7.5
		c-1.8,1.9-4,3-6.5,3.4c2.5,0.5,4.7,1.6,6.5,3.3s2.7,4.2,2.7,7.4c0,2.9-0.9,5.4-2.5,7.5c-1.7,2.2-4,3.8-6.8,5
		c-2.8,1.2-5.9,1.8-9.3,1.8c-2.3,0-4.6-0.3-6.8-0.9c-2.2-0.6-4-1.4-5.3-2.4v-11.5c1.6,1,3.2,1.8,4.8,2.4s3.2,0.8,5,0.8
		c2,0,3.8-0.4,5.2-1.2c1.4-0.8,2.1-2,2.1-3.8c0-1.1-0.4-1.9-1.1-2.4s-1.6-0.9-2.8-1.1c-1.2-0.2-2.4-0.3-3.6-0.3h-3.5v-9.6h3.5
		c1.3,0,2.5,0,3.6,0c1.2,0,2.1-0.2,2.8-0.6c0.7-0.4,1.1-1.2,1.1-2.3c0-1.8-0.8-3-2.3-3.8c-1.5-0.8-3.2-1.2-5-1.2
		c-3.2,0-6.1,1.2-8.7,3.7v-11.4c1.2-1.1,2.8-2.1,4.6-2.8C394.3,686.3,396.5,686,399.1,686z"/>
	<path class="st3" d="M444.3,686c4.1,0,7.5,1,10.2,3.1s4.9,4.9,6.3,8.6s2.1,8,2.1,13s-0.7,9.3-2.1,13c-1.4,3.7-3.5,6.6-6.3,8.6
		s-6.2,3.1-10.2,3.1c-4.1,0-7.5-1-10.2-3.1s-4.9-4.9-6.3-8.6s-2.1-8-2.1-13s0.7-9.3,2.1-13c1.4-3.7,3.5-6.6,6.3-8.6
		C436.8,687,440.2,686,444.3,686z M444.3,696.9c-1.8,0-3,1.2-3.8,3.4c-0.8,2.3-1.2,5.7-1.2,10.4c0,4.6,0.4,8,1.2,10.3
		c0.8,2.3,2.1,3.5,3.8,3.5c1.8,0,3.1-1.2,3.9-3.5s1.2-5.8,1.2-10.3c0-4.6-0.4-8.1-1.2-10.4C447.3,698.1,446,696.9,444.3,696.9z"/>
</g>
<g>
	<path class="st3" d="M321,238.9v11.7h-32.8v-11.7h10v-18.8c-1.4,1.1-2.9,2.1-4.7,2.8c-1.8,0.8-3.4,1.3-4.9,1.8v-13.1
		c2-0.7,4.3-1.8,6.7-3.2c2.5-1.4,4.5-3.2,6.2-5.3h10v35.7L321,238.9L321,238.9z"/>
</g>
<g>
	<path class="st3" d="M304.1,323.1c2.9,0,5.5,0.5,7.9,1.6c2.4,1,4.3,2.5,5.7,4.5c1.4,2,2.1,4.4,2.1,7.2c0,2.7-0.6,4.9-1.9,6.6
		s-2.7,2.9-4.2,3.6c1.3,0.4,2.5,1.1,3.6,2.2c1.2,1,2.1,2.2,2.8,3.7c0.7,1.4,1.1,3.1,1.1,4.9c0,3.1-0.8,5.8-2.3,8.1
		c-1.5,2.3-3.6,4.1-6.2,5.4c-2.6,1.3-5.5,1.9-8.6,1.9s-6-0.6-8.5-1.9s-4.6-3.1-6.2-5.4s-2.3-5-2.3-8.1c0-1.8,0.4-3.4,1.1-4.9
		c0.7-1.4,1.7-2.7,2.9-3.7c1.2-1,2.4-1.7,3.6-2.2c-1.6-0.8-3-2-4.3-3.6c-1.3-1.6-1.9-3.8-1.9-6.6c0-2.8,0.7-5.2,2.1-7.2
		c1.4-2,3.3-3.5,5.7-4.5C298.6,323.6,301.2,323.1,304.1,323.1z M304.1,351.6c-1.4,0-2.5,0.5-3.4,1.4s-1.3,2.2-1.3,3.9
		s0.4,2.9,1.3,3.8s2,1.3,3.4,1.3s2.5-0.4,3.4-1.3s1.3-2.1,1.3-3.8s-0.4-2.9-1.3-3.9C306.6,352.1,305.5,351.6,304.1,351.6z
		 M304.1,333.8c-1.2,0-2.2,0.4-3,1.2c-0.8,0.8-1.2,2-1.2,3.5c0,1.5,0.4,2.7,1.2,3.6c0.8,0.9,1.8,1.4,3,1.4c1.2,0,2.2-0.5,3-1.4
		c0.8-0.9,1.2-2.1,1.2-3.6c0-1.5-0.4-2.7-1.2-3.5C306.4,334.2,305.4,333.8,304.1,333.8z"/>
</g>
<g>
	<path class="st3" d="M299.7,480.8v11.7H267v-11.7h10v-18.8c-1.4,1.1-2.9,2.1-4.7,2.8c-1.8,0.8-3.4,1.3-4.9,1.8v-13.1
		c2-0.7,4.3-1.8,6.7-3.2s4.5-3.2,6.2-5.3h10v35.7H299.7z"/>
	<path class="st3" d="M338.4,445.1v11.7h-15.8v7.4c0.9-0.4,2.1-0.7,3.4-0.9c1.3-0.2,2.5-0.4,3.6-0.4c2.2,0,4.2,0.5,6.1,1.5
		c1.9,1,3.4,2.5,4.6,4.4c1.2,1.9,1.8,4.3,1.8,7.1c0,4.1-0.9,7.5-2.6,10.1s-4.1,4.5-7,5.8c-2.9,1.2-6,1.8-9.3,1.8
		c-2.5,0-4.5-0.2-6.3-0.7s-3.2-1-4.4-1.7c-1.2-0.7-2.2-1.3-3-1.8v-10.5c2.1,1,3.9,1.8,5.5,2.3c1.6,0.5,3.5,0.8,5.5,0.8
		c2.5,0,4.5-0.3,5.9-0.9c1.4-0.6,2.1-1.7,2.1-3.5c0-1.5-0.7-2.7-2-3.6c-1.3-0.9-3.2-1.4-5.7-1.4c-1.8,0-3.4,0.1-4.9,0.4
		c-1.5,0.3-2.9,0.6-4.2,1v-28.9H338.4z"/>
</g>
<g>
	<path class="st3" d="M282.3,565c3.4,0,6.3,0.6,8.8,1.9c2.5,1.3,4.5,3,5.9,5.2s2.1,4.8,2.1,7.6c0,2.4-0.3,4.5-0.8,6.3
		c-0.5,1.8-1.4,3.5-2.4,5.2c-1.1,1.7-2.4,3.4-4,5.2c-1.6,1.8-3.4,4-5.5,6.4h13.2v10.6h-32.2v-5.4c4.3-4.4,7.7-8.2,10.4-11.2
		s4.7-5.6,5.9-7.8s1.9-4.1,1.9-5.8c0-1.8-0.6-3.2-1.7-4.3s-2.6-1.7-4.5-1.7c-2,0-4,0.5-6.1,1.7s-3.8,2.5-5.2,4.1v-13.4
		c1.6-1.4,3.7-2.5,6.3-3.4C277,565.4,279.6,565,282.3,565z"/>
	<path class="st3" d="M324.8,565c3.4,0,6.3,0.6,8.8,1.9c2.5,1.3,4.5,3,5.9,5.2s2.1,4.8,2.1,7.6c0,2.4-0.3,4.5-0.8,6.3
		c-0.5,1.8-1.4,3.5-2.4,5.2c-1.1,1.7-2.4,3.4-4,5.2c-1.6,1.8-3.4,4-5.5,6.4H342v10.6h-32.2v-5.4c4.3-4.4,7.7-8.2,10.4-11.2
		s4.7-5.6,5.9-7.8s1.9-4.1,1.9-5.8c0-1.8-0.6-3.2-1.7-4.3s-2.6-1.7-4.5-1.7c-2,0-4,0.5-6.1,1.7s-3.8,2.5-5.2,4.1v-13.4
		c1.6-1.4,3.7-2.5,6.3-3.4C319.4,565.4,322.1,565,324.8,565z"/>
</g>
<g>
	<path class="st3" d="M282.3,686c3.4,0,6.3,0.6,8.8,1.9c2.5,1.3,4.5,3,5.9,5.2s2.1,4.8,2.1,7.6c0,2.4-0.3,4.5-0.8,6.3
		c-0.5,1.8-1.4,3.5-2.4,5.2c-1.1,1.7-2.4,3.4-4,5.2c-1.6,1.8-3.4,4-5.5,6.4h13.2v10.6h-32.2V729c4.3-4.4,7.7-8.2,10.4-11.2
		s4.7-5.6,5.9-7.8s1.9-4.1,1.9-5.8c0-1.8-0.6-3.2-1.7-4.3s-2.6-1.7-4.5-1.7c-2,0-4,0.5-6.1,1.7s-3.8,2.5-5.2,4.1v-13.4
		c1.6-1.4,3.7-2.5,6.3-3.4C277,686.4,279.6,686,282.3,686z"/>
	<path class="st3" d="M312.3,734.4c2.8-2.7,5.5-5.4,8.1-8c2.6-2.6,4.7-5.4,6.5-8.4c-1,0.7-2,1.1-2.8,1.2c-0.9,0.2-1.7,0.3-2.5,0.3
		c-2.6,0-5.1-0.6-7.4-1.9c-2.3-1.3-4.2-3.1-5.6-5.5c-1.4-2.4-2.2-5.1-2.2-8.3c0-3.6,0.8-6.7,2.5-9.4s3.9-4.8,6.7-6.2
		c2.8-1.5,5.9-2.2,9.2-2.2c3.2,0,6.1,0.7,9,2.2s5.1,3.6,6.9,6.3c1.8,2.7,2.6,5.9,2.6,9.7c0,3.2-0.5,6.3-1.6,9.3s-2.4,5.9-4,8.5
		c-1.6,2.7-3.3,5.1-5.1,7.2s-3.4,3.9-4.9,5.3L312.3,734.4L312.3,734.4z M324.7,708.2c1.5,0,2.7-0.5,3.6-1.6s1.3-2.3,1.3-3.7
		c0-1.4-0.4-2.7-1.3-3.7s-2.1-1.6-3.6-1.6s-2.7,0.5-3.6,1.6s-1.3,2.3-1.3,3.7c0,1.4,0.4,2.7,1.3,3.7
		C322,707.7,323.2,708.2,324.7,708.2z"/>
</g>
<g>
	<path class="st3" d="M203.5,324.1v5.1c-2.1,4.3-4,8.1-5.8,11.6s-3.3,6.8-4.6,10c-1.3,3.2-2.3,6.5-3,9.8s-1.1,7-1.1,10.9h-15.4
		c0-2.9,0.4-5.8,1.2-8.9s1.8-6.1,3-9.2c1.2-3.1,2.6-6.1,4-9.1c1.5-3,2.9-5.9,4.2-8.6h-16.9v-11.7L203.5,324.1L203.5,324.1z"/>
</g>
<g>
	<path class="st3" d="M180.8,480.8v11.7h-32.8v-11.7h10v-18.8c-1.4,1.1-2.9,2.1-4.7,2.8c-1.8,0.8-3.4,1.3-4.9,1.8v-13.1
		c2-0.7,4.3-1.8,6.7-3.2s4.5-3.2,6.2-5.3h10v35.7H180.8z"/>
	<path class="st3" d="M218.7,445.1v26.3h5.4V482h-5.4v10.5h-11.8V482h-18.3v-9.2c3.7-4.2,7.2-8.5,10.3-12.8s6.4-9.3,9.8-14.9
		L218.7,445.1L218.7,445.1z M206.9,465.2c-0.9,1.3-1.7,2.4-2.2,3.3c-0.5,0.9-1.3,1.8-2.2,3h4.4V465.2z"/>
</g>
<g>
	<path class="st3" d="M163.4,565c3.4,0,6.3,0.6,8.8,1.9c2.5,1.3,4.5,3,5.9,5.2s2.1,4.8,2.1,7.6c0,2.4-0.3,4.5-0.8,6.3
		c-0.5,1.8-1.4,3.5-2.4,5.2c-1.1,1.7-2.4,3.4-4,5.2c-1.6,1.8-3.4,4-5.5,6.4h13.2v10.6h-32.2v-5.4c4.3-4.4,7.7-8.2,10.4-11.2
		c2.7-3,4.7-5.6,5.9-7.8s1.9-4.1,1.9-5.8c0-1.8-0.6-3.2-1.7-4.3c-1.1-1.1-2.6-1.7-4.5-1.7c-2,0-4,0.5-6.1,1.7
		c-2.1,1.1-3.8,2.5-5.2,4.1v-13.4c1.6-1.4,3.7-2.5,6.3-3.4C158.1,565.4,160.7,565,163.4,565z"/>
	<path class="st3" d="M223.3,601.8v11.7h-32.8v-11.7h10V583c-1.4,1.1-2.9,2.1-4.7,2.8c-1.8,0.8-3.4,1.3-4.9,1.8v-13.1
		c2-0.7,4.3-1.8,6.7-3.2s4.5-3.2,6.2-5.3h10v35.7H223.3z"/>
</g>
<g>
	<path class="st3" d="M163.4,686c3.4,0,6.3,0.6,8.8,1.9c2.5,1.3,4.5,3,5.9,5.2s2.1,4.8,2.1,7.6c0,2.4-0.3,4.5-0.8,6.3
		c-0.5,1.8-1.4,3.5-2.4,5.2c-1.1,1.7-2.4,3.4-4,5.2c-1.6,1.8-3.4,4-5.5,6.4h13.2v10.6h-32.2V729c4.3-4.4,7.7-8.2,10.4-11.2
		c2.7-3,4.7-5.6,5.9-7.8s1.9-4.1,1.9-5.8c0-1.8-0.6-3.2-1.7-4.3c-1.1-1.1-2.6-1.7-4.5-1.7c-2,0-4,0.5-6.1,1.7
		c-2.1,1.1-3.8,2.5-5.2,4.1v-13.4c1.6-1.4,3.7-2.5,6.3-3.4C158.1,686.4,160.7,686,163.4,686z"/>
	<path class="st3" d="M206.4,686c2.9,0,5.5,0.5,7.9,1.6s4.3,2.5,5.7,4.5c1.4,2,2.1,4.4,2.1,7.2c0,2.7-0.6,4.9-1.9,6.6
		s-2.7,2.8-4.2,3.6c1.3,0.4,2.5,1.1,3.6,2.2c1.2,1,2.1,2.2,2.8,3.7s1.1,3.1,1.1,4.8c0,3.1-0.8,5.8-2.3,8.1s-3.6,4.1-6.2,5.4
		c-2.6,1.3-5.4,1.9-8.6,1.9s-6-0.6-8.5-1.9c-2.6-1.3-4.6-3.1-6.2-5.4s-2.3-5-2.3-8.1c0-1.8,0.4-3.4,1.1-4.8c0.7-1.4,1.7-2.7,2.9-3.7
		c1.2-1,2.4-1.7,3.6-2.2c-1.6-0.8-3-2-4.3-3.6c-1.3-1.7-1.9-3.8-1.9-6.6c0-2.8,0.7-5.2,2.1-7.2c1.4-2,3.3-3.5,5.7-4.5
		C200.9,686.5,203.6,686,206.4,686z M206.4,714.5c-1.4,0-2.5,0.5-3.4,1.4s-1.3,2.2-1.3,3.9c0,1.7,0.4,2.9,1.3,3.8
		c0.9,0.9,2,1.3,3.4,1.3s2.5-0.4,3.4-1.3c0.9-0.9,1.3-2.1,1.3-3.8s-0.4-2.9-1.3-3.9C208.9,714.9,207.8,714.5,206.4,714.5z
		 M206.4,696.6c-1.2,0-2.2,0.4-3,1.2c-0.8,0.8-1.2,2-1.2,3.5c0,1.5,0.4,2.7,1.2,3.6c0.8,0.9,1.8,1.4,3,1.4c1.2,0,2.2-0.5,3-1.4
		c0.8-1,1.2-2.2,1.2-3.6c0-1.5-0.4-2.7-1.2-3.5C208.7,697,207.7,696.6,206.4,696.6z"/>
</g>
<g>
	<path class="st3" d="M78.8,324.1c-2.8,2.7-5.5,5.4-8.1,8s-4.7,5.4-6.5,8.4c1-0.7,2-1.1,2.8-1.2c0.8-0.2,1.7-0.3,2.6-0.3
		c2.6,0,5.1,0.6,7.4,1.9s4.2,3.1,5.6,5.5c1.4,2.4,2.2,5.1,2.2,8.4c0,3.6-0.8,6.7-2.5,9.4c-1.7,2.7-3.9,4.8-6.7,6.2
		c-2.8,1.5-5.9,2.2-9.2,2.2c-3.2,0-6.1-0.7-9-2.2c-2.8-1.5-5.1-3.6-6.9-6.3c-1.8-2.7-2.7-5.9-2.7-9.7c0-3.2,0.5-6.3,1.6-9.3
		s2.4-5.9,4-8.5c1.6-2.7,3.3-5.1,5.1-7.2s3.4-3.9,4.9-5.3L78.8,324.1L78.8,324.1z M66.4,350.3c-1.5,0-2.7,0.5-3.6,1.6
		s-1.3,2.3-1.3,3.7c0,1.4,0.4,2.6,1.3,3.7c0.9,1.1,2.1,1.6,3.6,1.6s2.7-0.5,3.6-1.6s1.3-2.3,1.3-3.7s-0.4-2.6-1.3-3.7
		S67.9,350.3,66.4,350.3z"/>
</g>
<g>
	<path class="st3" d="M61.9,480.8v11.7H29.2v-11.7h10v-18.8c-1.4,1.1-2.9,2.1-4.7,2.8c-1.8,0.8-3.4,1.3-4.9,1.8v-13.1
		c2-0.7,4.3-1.8,6.7-3.2s4.5-3.2,6.2-5.3h10v35.7H61.9z"/>
	<path class="st3" d="M84.8,444c3.5,0,6.7,0.6,9.4,1.7c2.8,1.2,4.9,2.8,6.5,4.8c1.6,2,2.3,4.4,2.3,7.1c0,3.2-0.9,5.7-2.7,7.5
		s-4,3-6.5,3.4c2.6,0.5,4.7,1.6,6.5,3.3c1.8,1.7,2.7,4.1,2.7,7.4c0,2.9-0.8,5.4-2.6,7.5c-1.7,2.1-4,3.8-6.8,5
		c-2.8,1.2-5.9,1.8-9.3,1.8c-2.3,0-4.6-0.3-6.8-0.9c-2.2-0.6-3.9-1.4-5.3-2.4v-11.5c1.6,1,3.2,1.8,4.8,2.4s3.2,0.8,5,0.8
		c2,0,3.8-0.4,5.2-1.2c1.4-0.8,2.1-2,2.1-3.8c0-1.1-0.3-1.9-1.1-2.4s-1.6-0.9-2.8-1.1c-1.2-0.2-2.4-0.3-3.6-0.3h-3.5v-9.6H82
		c1.3,0,2.5,0,3.6,0c1.2,0,2.1-0.2,2.8-0.6c0.7-0.4,1.1-1.2,1.1-2.3c0-1.7-0.8-3-2.3-3.8c-1.5-0.8-3.2-1.2-5-1.2
		c-3.2,0-6.1,1.2-8.7,3.7V448c1.2-1.1,2.8-2.1,4.6-2.8C80,444.4,82.3,444,84.8,444z"/>
</g>
<g>
	<path class="st3" d="M44.5,565c3.3,0,6.3,0.6,8.8,1.9c2.5,1.3,4.5,3,5.9,5.2c1.4,2.2,2.1,4.8,2.1,7.6c0,2.4-0.3,4.5-0.8,6.3
		c-0.5,1.8-1.4,3.5-2.4,5.2c-1.1,1.7-2.4,3.4-4,5.2c-1.6,1.8-3.4,4-5.5,6.4h13.2v10.6H29.5v-5.4c4.3-4.4,7.7-8.2,10.4-11.2
		s4.7-5.6,5.9-7.8s1.9-4.1,1.9-5.8c0-1.8-0.6-3.2-1.7-4.3s-2.6-1.7-4.5-1.7c-2,0-4,0.5-6.1,1.7s-3.8,2.5-5.2,4.1v-13.4
		c1.6-1.4,3.7-2.5,6.3-3.4C39.2,565.4,41.8,565,44.5,565z"/>
	<path class="st3" d="M87.5,565c4.1,0,7.5,1,10.2,3.1s4.8,4.9,6.3,8.6s2.1,8.1,2.1,13c0,5-0.7,9.3-2.1,13c-1.4,3.7-3.5,6.6-6.3,8.6
		s-6.2,3.1-10.2,3.1c-4.1,0-7.5-1-10.2-3.1s-4.8-4.9-6.3-8.6s-2.1-8-2.1-13s0.7-9.3,2.1-13c1.4-3.7,3.5-6.6,6.3-8.6
		C80.1,566,83.5,565,87.5,565z M87.5,576c-1.8,0-3,1.1-3.8,3.4s-1.2,5.7-1.2,10.4c0,4.6,0.4,8,1.2,10.3c0.8,2.3,2.1,3.5,3.8,3.5
		c1.8,0,3.1-1.2,3.9-3.5s1.2-5.8,1.2-10.3c0-4.6-0.4-8.1-1.2-10.4C90.6,577.1,89.3,576,87.5,576z"/>
</g>
<g>
	<path class="st3" d="M44.5,686c3.3,0,6.3,0.6,8.8,1.9c2.5,1.3,4.5,3,5.9,5.2c1.4,2.2,2.1,4.8,2.1,7.6c0,2.4-0.3,4.5-0.8,6.3
		c-0.5,1.8-1.4,3.5-2.4,5.2c-1.1,1.7-2.4,3.4-4,5.2c-1.6,1.8-3.4,4-5.5,6.4h13.2v10.6H29.5V729c4.3-4.4,7.7-8.2,10.4-11.2
		s4.7-5.6,5.9-7.8s1.9-4.1,1.9-5.8c0-1.8-0.6-3.2-1.7-4.3s-2.6-1.7-4.5-1.7c-2,0-4,0.5-6.1,1.7s-3.8,2.5-5.2,4.1v-13.4
		c1.6-1.4,3.7-2.5,6.3-3.4C39.2,686.4,41.8,686,44.5,686z"/>
	<path class="st3" d="M105.9,687v5.1c-2.1,4.2-4,8.1-5.8,11.6c-1.8,3.5-3.3,6.8-4.6,10c-1.3,3.2-2.3,6.5-3,9.8s-1.1,7-1.1,10.9H76
		c0-2.9,0.4-5.8,1.2-8.9s1.8-6.1,3-9.2c1.2-3.1,2.6-6.1,4-9.1c1.5-3,2.8-5.9,4.2-8.6H71.5V687L105.9,687L105.9,687z"/>
</g>
</svg>
