<?xml version="1.0" encoding="utf-8"?>
<!-- Generator: Adobe Illustrator 24.0.0, SVG Export Plug-In . SVG Version: 6.00 Build 0)  -->
<svg version="1.1" id="Layer_1" xmlns="http://www.w3.org/2000/svg" xmlns:xlink="http://www.w3.org/1999/xlink" x="0px" y="0px"
	 viewBox="0 0 800.63 471" style="enable-background:new 0 0 800.63 471;" xml:space="preserve">
<style type="text/css">
	.st0{fill:#DE4C3F;}
	.st1{fill:#542D32;}
	.st2{fill:#262626;}
	.st3{fill:#FFFFFF;}
	.st4{font-family:'Sen-ExtraBold';}
	.st5{font-size:42px;}
	.st6{font-family:'Montserrat-Medium';}
	.st7{font-size:27.2773px;}
	.st8{fill:none;}
</style>
<g>
	<polygon class="st0" points="578.82,466 7.58,466 174.05,109 747.82,109 	"/>
	<polygon class="st1" points="389.82,466 195.58,466 362.05,109 558.82,109 	"/>
	<path class="st2" d="M792.78,5L577.81,466H7.85L222.82,5H792.78 M800.63,0h-581L0,471h581L800.63,0L800.63,0z"/>
	<g>
		<polygon class="st2" points="747.24,109 169.24,109 221.39,0 799.39,0 		"/>
	</g>
	<polygon class="st2" points="191.48,469.94 196.82,470 365.3,109 359.79,109 	"/>
	<polygon class="st3" points="410.62,0 359.79,109 365.3,109 416.13,0 	"/>
	<polygon class="st2" points="384.81,469.94 390.82,470 558.64,109 553.12,109 	"/>
	<polygon class="st3" points="603.95,0 553.12,109 558.64,109 609.47,0 	"/>
	<text transform="matrix(1 0 0 1 225.3154 67.5313)" class="st3 st4 st5">PLACE</text>
	<text transform="matrix(1 0 0 1 417.3154 67.5313)" class="st3 st4 st5">NAME</text>
	<text transform="matrix(1 0 0 1 618.3154 67.5313)" class="st3 st4 st5">TIME</text>
	<text transform="matrix(1 0 0 1 222.1299 157.1494)" class="st3 st6 st7">1st</text>
	<text transform="matrix(1 0 0 1 199.1148 204.7622)" class="st3 st6 st7">2nd</text>
	<text transform="matrix(1 0 0 1 176.9522 252.375)" class="st3 st6 st7">3rd</text>
	<text transform="matrix(1 0 0 1 150.7886 299.9878)" class="st3 st6 st7">4th</text>
	<text transform="matrix(1 0 0 1 130.4785 347.6006)" class="st3 st6 st7">5th</text>
	<text transform="matrix(1 0 0 1 107.3159 395.2134)" class="st3 st6 st7">6th</text>
	<text transform="matrix(1 0 0 1 88.3159 442.8262)" class="st3 st6 st7">7th</text>
	<rect x="351.5" y="133.96" class="st8" width="170.32" height="30.36"/>
	<text transform="matrix(1 0 0 1 402.4224 157.1494)" class="st3 st6 st7">John</text>
	<rect x="330.82" y="181.58" class="st8" width="175" height="30.36"/>
	<text transform="matrix(1 0 0 1 369.1348 204.7622)" class="st3 st6 st7">Andew</text>
	<rect x="307.82" y="229.19" class="st8" width="172" height="30.36"/>
	<text transform="matrix(1 0 0 1 355.0278 252.375)" class="st3 st6 st7">Emily</text>
	<rect x="285.82" y="276.8" class="st8" width="175" height="30.36"/>
	<text transform="matrix(1 0 0 1 328.6494 299.9878)" class="st3 st6 st7">Daniel</text>
	<rect x="265.82" y="324.42" class="st8" width="171" height="30.36"/>
	<text transform="matrix(1 0 0 1 303.2534 347.6006)" class="st3 st6 st7">Kaelon</text>
	<rect x="241.82" y="372.03" class="st8" width="176" height="30.36"/>
	<text transform="matrix(1 0 0 1 289.5547 395.2134)" class="st3 st6 st7">Azure</text>
	<rect x="217.82" y="419.64" class="st8" width="176" height="30.36"/>
	<text transform="matrix(1 0 0 1 261.0674 442.8262)" class="st3 st6 st7">James</text>
	<rect x="544.5" y="133.96" class="st8" width="172.32" height="30.36"/>
	<text transform="matrix(1 0 0 1 609.6387 157.1494)" class="st3 st6 st7">1:12</text>
	<rect x="532.33" y="181.58" class="st8" width="168.48" height="30.36"/>
	<text transform="matrix(1 0 0 1 594.2607 204.7622)" class="st3 st6 st7">1:14</text>
	<rect x="505.15" y="229.19" class="st8" width="170.67" height="30.36"/>
	<text transform="matrix(1 0 0 1 565.4155 252.375)" class="st3 st6 st7">1:20</text>
	<rect x="481.93" y="276.8" class="st8" width="167.88" height="30.36"/>
	<text transform="matrix(1 0 0 1 544.8574 299.9878)" class="st3 st6 st7">1:21</text>
	<rect x="457.67" y="324.42" class="st8" width="173.15" height="30.36"/>
	<text transform="matrix(1 0 0 1 519.8555 347.6006)" class="st3 st6 st7">1:29</text>
	<rect x="433.51" y="372.03" class="st8" width="176.3" height="30.36"/>
	<text transform="matrix(1 0 0 1 496.5977 395.2134)" class="st3 st6 st7">1:34</text>
	<rect x="413.67" y="419.64" class="st8" width="177.15" height="30.36"/>
	<text transform="matrix(1 0 0 1 477.1748 442.8262)" class="st3 st6 st7">1:34</text>
</g>
</svg>
