<?xml version="1.0" encoding="utf-8"?>
<!-- Generator: Adobe Illustrator 24.0.0, SVG Export Plug-In . SVG Version: 6.00 Build 0)  -->
<svg version="1.1" id="Layer_1" xmlns="http://www.w3.org/2000/svg" xmlns:xlink="http://www.w3.org/1999/xlink" x="0px" y="0px"
	 viewBox="0 0 350 175" style="enable-background:new 0 0 350 175;" xml:space="preserve">
<style type="text/css">
	.st0{fill:#FFFFFF;}
	.st1{fill:#83322F;}
	.st2{fill:none;}
	.st3{fill:none;stroke:#DC4C41;stroke-width:6;stroke-linecap:round;stroke-miterlimit:10;}
</style>
<g>
	<path class="st0" d="M6.1,169C9.3,78.6,83.8,6,175,6s165.7,72.6,168.9,163H6.1z"/>
	<g>
		<path class="st1" d="M175,12c43.5,0,84.5,17,115.3,47.7c27.9,27.9,44.5,64.2,47.3,103.3H12.4c2.8-39,19.4-75.3,47.3-103.3
			C90.5,29,131.5,12,175,12 M175,0C78.4,0,0,78.4,0,175h350C350,78.4,271.6,0,175,0L175,0z"/>
	</g>
</g>
<path id="SVGID_x5F_1_x5F_" class="st2" d="M328,171.5H22c0-82.8,68.5-150,153-150S328,88.7,328,171.5z"/>
<text><textPath  xlink:href="#SVGID_x5F_1_x5F_" startOffset="8151.7837%">
<tspan  style="fill:#FFFFFF;stroke:#262626;stroke-width:2;stroke-miterlimit:10; font-family:'MyriadPro-Regular'; font-size:10.2857px;">| | | | | | | | | | | |</tspan></textPath>
</text>
<line class="st3" x1="78.6" y1="71.1" x2="175.4" y2="167.9"/>
</svg>
